<svg width="49" height="48" viewBox="0 0 49 48" fill="none" xmlns="http://www.w3.org/2000/svg">
<path d="M48.0137 24C48.0137 10.7453 37.2684 0 24.0137 0C10.759 0 0.0136719 10.7453 0.0136719 24C0.0136719 35.255 7.76279 44.6995 18.2162 47.2934V31.3344H13.2674V24H18.2162V20.8397C18.2162 12.671 21.9132 8.8848 29.933 8.8848C31.4537 8.8848 34.0774 9.18336 35.1506 9.48096V16.129C34.5842 16.0694 33.6002 16.0397 32.3782 16.0397C28.4431 16.0397 26.9225 17.5306 26.9225 21.4061V24H34.7618L33.415 31.3344H26.9225V47.8243C38.8063 46.3891 48.0146 36.2707 48.0146 24H48.0137Z" fill="#0866FF"/>
</svg>
