<svg width="48" height="48" viewBox="0 0 48 48" fill="none" xmlns="http://www.w3.org/2000/svg">
<g clip-path="url(#clip0_805_5883)">
<path d="M3.27273 42.0095H10.9091V23.464L0 15.2822V38.7368C0 40.5477 1.46727 42.0095 3.27273 42.0095Z" fill="#4285F4"/>
<path d="M37.0908 42.0095H44.7272C46.5381 42.0095 47.9999 40.5422 47.9999 38.7368V15.2822L37.0908 23.464" fill="#34A853"/>
<path d="M37.0908 9.28201V23.4638L47.9999 15.282V10.9184C47.9999 6.8711 43.3799 4.56383 40.1454 6.9911" fill="#FBBC04"/>
<path d="M10.9092 23.464V9.28223L24.0001 19.1004L37.091 9.28223V23.464L24.0001 33.2822" fill="#EA4335"/>
<path d="M0 10.9184V15.282L10.9091 23.4638V9.28201L7.85455 6.9911C4.61455 4.56383 0 6.8711 0 10.9184Z" fill="#C5221F"/>
</g>
<defs>
<clipPath id="clip0_805_5883">
<rect width="48" height="48" fill="white"/>
</clipPath>
</defs>
</svg>
