<svg width="48" height="48" viewBox="0 0 48 48" fill="none" xmlns="http://www.w3.org/2000/svg">
<path d="M24.0612 0H23.952C10.7312 0 0.0136719 10.7207 0.0136719 23.9453V24.0547C0.0136719 37.2793 10.7312 48 23.952 48H24.0612C37.282 48 47.9995 37.2793 47.9995 24.0547V23.9453C47.9995 10.7207 37.282 0 24.0612 0Z" fill="url(#paint0_linear_805_5877)"/>
<path d="M31.4309 9.76562H16.5828C12.4807 9.76562 9.14355 13.1037 9.14355 17.207V30.7949C9.14355 34.8982 12.4807 38.2364 16.5828 38.2364H31.4309C35.533 38.2364 38.8701 34.8982 38.8701 30.7949V17.207C38.8701 13.1037 35.533 9.76562 31.4309 9.76562ZM11.7679 17.207C11.7679 14.5517 13.9282 12.3907 16.5828 12.3907H31.4309C34.0855 12.3907 36.2458 14.5517 36.2458 17.207V30.7949C36.2458 33.4503 34.0855 35.6113 31.4309 35.6113H16.5828C13.9282 35.6113 11.7679 33.4503 11.7679 30.7949V17.207Z" fill="white"/>
<path d="M24.0066 30.9207C27.8212 30.9207 30.9264 27.8163 30.9264 23.9989C30.9264 20.1815 27.8229 17.0771 24.0066 17.0771C20.1904 17.0771 17.0869 20.1815 17.0869 23.9989C17.0869 27.8163 20.1904 30.9207 24.0066 30.9207ZM24.0066 19.7039C26.3754 19.7039 28.3021 21.6311 28.3021 24.0006C28.3021 26.3701 26.3754 28.2973 24.0066 28.2973C21.6379 28.2973 19.7112 26.3701 19.7112 24.0006C19.7112 21.6311 21.6379 19.7039 24.0066 19.7039Z" fill="white"/>
<path d="M31.5666 18.1958C32.5938 18.1958 33.431 17.36 33.431 16.3308C33.431 15.3016 32.5955 14.4658 31.5666 14.4658C30.5377 14.4658 29.7021 15.3016 29.7021 16.3308C29.7021 17.36 30.5377 18.1958 31.5666 18.1958Z" fill="white"/>
<defs>
<linearGradient id="paint0_linear_805_5877" x1="7.02418" y1="40.9874" x2="40.999" y2="7.02427" gradientUnits="userSpaceOnUse">
<stop stop-color="#FAAD4F"/>
<stop offset="0.35" stop-color="#DD2A7B"/>
<stop offset="0.62" stop-color="#9537B0"/>
<stop offset="1" stop-color="#515BD4"/>
</linearGradient>
</defs>
</svg>
