<svg width="16" height="16" viewBox="0 0 16 16" fill="white" xmlns="http://www.w3.org/2000/svg">
<path fill-rule="evenodd" clip-rule="evenodd" d="M0 7.75979C0 3.30191 3.4939 0 7.99978 0C12.5056 0 15.9996 3.30391 15.9996 7.76179C15.9996 12.2197 12.5056 15.5216 7.99978 15.5216C7.1898 15.5216 6.41382 15.4136 5.68384 15.2136C5.54184 15.1756 5.38985 15.1856 5.25585 15.2456L3.6679 15.9456C3.57199 15.9879 3.46716 16.006 3.36262 15.9983C3.25808 15.9906 3.15704 15.9573 3.06836 15.9014C2.97968 15.8455 2.90609 15.7687 2.85405 15.6777C2.80202 15.5867 2.77313 15.4844 2.76992 15.3796L2.72592 13.9556C2.72192 13.7796 2.64193 13.6156 2.51193 13.4996C0.955973 12.1077 0 10.0917 0 7.75979ZM5.54585 6.30183L3.19592 10.0297C2.96992 10.3877 3.40991 10.7897 3.7459 10.5337L6.26983 8.61776C6.35288 8.55469 6.45421 8.52038 6.55849 8.52001C6.66277 8.51965 6.76434 8.55326 6.84782 8.61576L8.71776 10.0177C8.8504 10.1173 9.00224 10.1884 9.16371 10.2263C9.32518 10.2643 9.49277 10.2684 9.65589 10.2383C9.81902 10.2082 9.97413 10.1447 10.1115 10.0516C10.2488 9.95859 10.3653 9.83809 10.4537 9.69773L12.8056 5.97184C13.0296 5.61385 12.5897 5.20986 12.2537 5.46585L9.72974 7.3818C9.64669 7.44487 9.54536 7.47919 9.44108 7.47955C9.33679 7.47991 9.23523 7.4463 9.15175 7.3838L7.2818 5.98184C7.14917 5.88223 6.99733 5.8112 6.83586 5.77323C6.67439 5.73527 6.5068 5.73119 6.34368 5.76126C6.18055 5.79133 6.02543 5.85489 5.88811 5.94793C5.75079 6.04097 5.63425 6.16148 5.54585 6.30183Z" fill="white"/>
</svg>
