<svg width="24" height="18" viewBox="0 0 24 18" fill="none" xmlns="http://www.w3.org/2000/svg">
<path d="M22.9498 10.1002C22.871 10.1593 22.7813 10.2023 22.6859 10.2267C22.5905 10.2511 22.4912 10.2566 22.3937 10.2426C22.2962 10.2287 22.2024 10.1957 22.1177 10.1455C22.0329 10.0953 21.9589 10.029 21.8998 9.95017C21.4477 9.34254 20.8593 8.84953 20.182 8.51084C19.5046 8.17215 18.7571 7.99723 17.9998 8.00017C17.8523 8.00015 17.7081 7.95666 17.5852 7.87512C17.4623 7.79358 17.3662 7.67761 17.3089 7.54173C17.2699 7.44946 17.2499 7.35032 17.2499 7.25017C17.2499 7.15002 17.2699 7.05088 17.3089 6.9586C17.3662 6.82272 17.4623 6.70676 17.5852 6.62522C17.7081 6.54368 17.8523 6.50018 17.9998 6.50017C18.4206 6.50013 18.833 6.38208 19.1901 6.15942C19.5472 5.93677 19.8347 5.61844 20.0199 5.24058C20.2051 4.86273 20.2807 4.4405 20.238 4.02185C20.1953 3.6032 20.036 3.20493 19.7783 2.87225C19.5206 2.53958 19.1748 2.28584 18.7801 2.13987C18.3854 1.9939 17.9577 1.96154 17.5455 2.04646C17.1334 2.13139 16.7533 2.3302 16.4484 2.62031C16.1436 2.91043 15.9262 3.28021 15.821 3.68767C15.7964 3.78308 15.7532 3.87271 15.694 3.95144C15.6347 4.03017 15.5605 4.09645 15.4757 4.14651C15.3908 4.19656 15.2969 4.22941 15.1993 4.24318C15.1017 4.25694 15.0024 4.25135 14.907 4.22673C14.8116 4.20211 14.7219 4.15893 14.6432 4.09967C14.5645 4.04041 14.4982 3.96622 14.4481 3.88134C14.3981 3.79646 14.3652 3.70256 14.3515 3.60498C14.3377 3.50741 14.3433 3.40808 14.3679 3.31267C14.5139 2.74765 14.7898 2.22451 15.1736 1.78487C15.5574 1.34523 16.0385 1.00124 16.5786 0.780246C17.1187 0.559256 17.703 0.467375 18.2848 0.511915C18.8667 0.556454 19.4302 0.736184 19.9304 1.0368C20.4306 1.33742 20.8537 1.75063 21.1661 2.24356C21.4785 2.73648 21.6715 3.29552 21.7299 3.87618C21.7882 4.45684 21.7102 5.0431 21.5021 5.58831C21.2939 6.13352 20.9615 6.62263 20.531 7.01673C21.5509 7.45829 22.4374 8.15899 23.1026 9.04923C23.1617 9.12822 23.2046 9.2181 23.2289 9.31371C23.2532 9.40932 23.2584 9.50878 23.2442 9.6064C23.23 9.70403 23.1967 9.79789 23.1462 9.88262C23.0957 9.96735 23.0289 10.0413 22.9498 10.1002ZM17.8985 15.8752C17.9528 15.9605 17.9892 16.056 18.0057 16.1558C18.0221 16.2556 18.0181 16.3577 17.9941 16.456C17.97 16.5542 17.9263 16.6466 17.8656 16.7275C17.8049 16.8084 17.7285 16.8762 17.6409 16.9268C17.5534 16.9775 17.4565 17.0099 17.356 17.022C17.2556 17.0342 17.1538 17.026 17.0566 16.9978C16.9595 16.9696 16.8691 16.9221 16.7908 16.8581C16.7125 16.794 16.6479 16.7148 16.601 16.6252C16.1286 15.8252 15.4557 15.1622 14.6488 14.7016C13.8419 14.241 12.9289 13.9988 11.9998 13.9988C11.0707 13.9988 10.1577 14.241 9.35077 14.7016C8.54388 15.1622 7.871 15.8252 7.39855 16.6252C7.35166 16.7148 7.28713 16.794 7.20883 16.8581C7.13054 16.9221 7.04009 16.9696 6.94295 16.9978C6.8458 17.026 6.74396 17.0342 6.64355 17.022C6.54313 17.0099 6.44622 16.9775 6.35865 16.9268C6.27108 16.8762 6.19465 16.8084 6.13396 16.7275C6.07327 16.6466 6.02958 16.5542 6.00552 16.456C5.98145 16.3577 5.97751 16.2556 5.99393 16.1558C6.01034 16.056 6.04678 15.9605 6.10105 15.8752C6.82817 14.6258 7.93685 13.6427 9.26417 13.0702C8.51729 12.4983 7.96838 11.7068 7.69461 10.8069C7.42083 9.90695 7.43595 8.94385 7.73784 8.05295C8.03973 7.16206 8.61321 6.38816 9.37767 5.84005C10.1421 5.29194 11.0591 4.99716 11.9998 4.99716C12.9404 4.99716 13.8575 5.29194 14.6219 5.84005C15.3864 6.38816 15.9599 7.16206 16.2617 8.05295C16.5636 8.94385 16.5788 9.90695 16.305 10.8069C16.0312 11.7068 15.4823 12.4983 14.7354 13.0702C16.0627 13.6427 17.1714 14.6258 17.8985 15.8752ZM11.9998 12.5002C12.5931 12.5002 13.1732 12.3242 13.6665 11.9946C14.1599 11.6649 14.5444 11.1964 14.7714 10.6482C14.9985 10.1 15.0579 9.49684 14.9422 8.9149C14.8264 8.33295 14.5407 7.7984 14.1211 7.37885C13.7016 6.95929 13.167 6.67357 12.5851 6.55781C12.0031 6.44206 11.3999 6.50147 10.8517 6.72853C10.3036 6.95559 9.83503 7.34011 9.50539 7.83346C9.17574 8.3268 8.9998 8.90682 8.9998 9.50017C8.9998 10.2958 9.31587 11.0589 9.87848 11.6215C10.4411 12.1841 11.2041 12.5002 11.9998 12.5002ZM6.7498 7.25017C6.7498 7.05125 6.67078 6.86049 6.53013 6.71984C6.38947 6.57919 6.19871 6.50017 5.9998 6.50017C5.57898 6.50013 5.1666 6.38208 4.80952 6.15942C4.45243 5.93677 4.16494 5.61844 3.9797 5.24058C3.79446 4.86273 3.7189 4.4405 3.76161 4.02185C3.80431 3.6032 3.96356 3.20493 4.22127 2.87225C4.47898 2.53958 4.82483 2.28584 5.21951 2.13987C5.6142 1.9939 6.04192 1.96154 6.45408 2.04646C6.86624 2.13139 7.24632 2.3302 7.55115 2.62031C7.85598 2.91043 8.07334 3.28021 8.17855 3.68767C8.22827 3.88036 8.35251 4.04541 8.52393 4.14651C8.69535 4.2476 8.89991 4.27646 9.09261 4.22673C9.2853 4.177 9.45035 4.05276 9.55145 3.88134C9.65254 3.70992 9.6814 3.50536 9.63167 3.31267C9.48565 2.74765 9.20977 2.22451 8.82599 1.78487C8.44221 1.34523 7.96112 1.00124 7.421 0.780246C6.88088 0.559256 6.29664 0.467375 5.71476 0.511915C5.13288 0.556454 4.56942 0.736184 4.06923 1.0368C3.56903 1.33742 3.1459 1.75063 2.8335 2.24356C2.5211 2.73648 2.32806 3.29552 2.26974 3.87618C2.21141 4.45684 2.28941 5.0431 2.49752 5.58831C2.70564 6.13352 3.03813 6.62263 3.46855 7.01673C2.44975 7.45871 1.56422 8.15938 0.899796 9.04923C0.780324 9.20836 0.72896 9.40843 0.757003 9.60543C0.785045 9.80243 0.890197 9.98023 1.04933 10.0997C1.20846 10.2192 1.40853 10.2705 1.60553 10.2425C1.80253 10.2144 1.98032 10.1093 2.0998 9.95017C2.55185 9.34254 3.14025 8.84953 3.81763 8.51084C4.49502 8.17215 5.24246 7.99723 5.9998 8.00017C6.19871 8.00017 6.38947 7.92115 6.53013 7.7805C6.67078 7.63984 6.7498 7.44908 6.7498 7.25017Z" fill="black"/>
</svg>
