<svg width="27" height="36" viewBox="0 0 27 36" fill="none" xmlns="http://www.w3.org/2000/svg">
<path d="M18.2583 34.685C16.6658 35.3918 14.9116 35.7835 13.0551 35.7835C5.9699 35.7835 0.22168 30.0353 0.22168 22.9501V13.0546C0.22168 5.96941 5.9699 0.221191 13.0551 0.221191C15.7035 0.221191 18.1732 1.02168 20.217 2.40126L21.1878 3.11659C22.8569 4.54726 23.4615 7.22124 23.3423 9.41834L23.4445 9.63124C23.9129 10.6361 24.2365 11.7176 24.3897 12.8162C24.8241 15.9671 23.9895 19.3819 25.3691 22.2433C25.7438 23.0182 26.2803 23.7421 26.4336 24.5936C26.655 25.7773 26.0759 26.9951 25.2584 27.8808C24.4408 28.7664 23.4019 29.4136 22.4396 30.146C21.4773 30.8784 20.8386 31.9939 20.1488 32.8881C20.1488 32.8881 19.5868 33.6375 19.2547 33.9611C18.9226 34.2847 18.2583 34.685 18.2583 34.685Z" fill="white"/>
<path d="M18.1559 34.4975C16.2142 35.3576 14.0597 35.6983 11.9478 35.5194C10.2872 35.3747 8.65213 34.8978 7.17889 34.1143C5.73119 33.3479 4.44529 32.3004 3.38932 31.0486C2.33335 29.7968 1.53286 28.332 1.03894 26.7736C0.638691 25.4962 0.451342 24.1763 0.451342 22.8478C0.451342 22.1154 0.451342 21.3916 0.451342 20.6592C0.451342 19.4585 0.451342 18.2492 0.451342 17.0485C0.451342 16.0095 0.451342 14.9791 0.451342 13.9402C0.451342 13.1738 0.442826 12.4073 0.527985 11.6409C0.706818 9.98882 1.2348 8.3708 2.04381 6.9231C2.8443 5.49243 3.9173 4.23208 5.19469 3.20166C6.47207 2.17976 7.95383 1.40481 9.52927 0.944954C11.2835 0.434001 13.157 0.306262 14.9624 0.57877C16.8189 0.859794 18.7094 1.54958 20.2337 2.67368C20.6936 3.01431 21.1449 3.31237 21.5111 3.73816C22.1072 4.41943 22.499 5.2625 22.7629 6.12261C23.0269 7.00826 23.1547 7.93649 23.1547 8.85621C23.1547 8.9584 23.1547 9.06059 23.1462 9.1713C23.1462 9.282 23.1206 9.40974 23.1547 9.51193C23.1973 9.63967 23.2824 9.76741 23.3335 9.89514C23.5634 10.4146 23.7593 10.9511 23.9041 11.5046C24.4832 13.6592 24.2617 15.8818 24.3214 18.0789C24.3469 19.1434 24.4491 20.2079 24.7557 21.2298C24.9089 21.7322 25.1133 22.2176 25.3603 22.6775C25.6072 23.1373 25.8968 23.5887 26.0756 24.0826C26.4503 25.0875 26.2204 26.1179 25.6669 27.0035C25.0878 27.9233 24.2106 28.5875 23.3505 29.2177C22.9247 29.5328 22.4734 29.8223 22.0732 30.1715C21.6814 30.5121 21.3493 30.9038 21.0427 31.3126C20.5744 31.9342 20.1401 32.5815 19.6546 33.1946C19.4162 33.4841 19.1778 33.7737 18.8797 34.0036C18.6413 34.1824 18.3943 34.3442 18.1559 34.4975C17.9174 34.6423 18.1388 35.0255 18.3773 34.8722C18.6413 34.7019 18.9053 34.5231 19.1522 34.3357C19.4673 34.0888 19.7228 33.7992 19.9697 33.4926C20.4722 32.8625 20.9235 32.1897 21.4089 31.5425C21.7325 31.1252 22.0817 30.725 22.4904 30.3929C22.9247 30.0352 23.3931 29.7286 23.8445 29.3965C24.7131 28.7493 25.5647 28.051 26.1182 27.1057C26.6462 26.2031 26.8761 25.1386 26.544 24.1252C26.3737 23.6142 26.1097 23.1544 25.8457 22.686C25.5817 22.2006 25.3433 21.7067 25.1815 21.1787C24.5257 19.0582 24.7897 16.793 24.7386 14.6129C24.7131 13.4803 24.5939 12.3562 24.2788 11.2577C24.117 10.6956 23.9126 10.1421 23.6741 9.61412C23.6401 9.54599 23.6145 9.48638 23.5805 9.41825C23.5634 9.39271 23.5549 9.36716 23.5379 9.3331C23.5209 9.29903 23.5464 9.34161 23.5464 9.34161C23.5634 9.37568 23.5634 9.37568 23.5634 9.34161C23.5634 9.32458 23.5634 9.30755 23.5634 9.29052C23.572 9.06059 23.572 8.82214 23.572 8.59221C23.5209 6.7613 23.0269 4.78562 21.7751 3.38901C21.3834 2.9547 20.9065 2.63961 20.4381 2.29898C19.7313 1.77951 18.9223 1.36223 18.1218 1.0216C16.2142 0.212587 14.1108 -0.119532 12.0415 0.0422696C10.3127 0.178524 8.61807 0.655413 7.0767 1.44739C5.58642 2.21382 4.24942 3.26979 3.15939 4.53866C2.06084 5.81604 1.20925 7.30632 0.672755 8.9073C0.212897 10.2698 0 11.7005 0 13.1312C0 13.855 0 14.5789 0 15.3027C0 16.529 0 17.7553 0 18.9731C0 20.029 0 21.085 0 22.141C0 22.9755 2.63945e-07 23.8101 0.110707 24.6361C0.33212 26.3393 0.885651 27.9829 1.74576 29.4732C2.58031 30.9209 3.69589 32.2067 5.01585 33.2287C6.36136 34.2761 7.89422 35.0596 9.52927 35.5194C11.3772 36.0389 13.3359 36.1326 15.2264 35.8175C16.3079 35.6387 17.3554 35.3151 18.3602 34.8722C18.6327 34.7615 18.4113 34.3868 18.1559 34.4975Z" fill="#4A4A4A"/>
<path d="M10.1937 5.59479C11.3008 3.28699 13.6767 1.686 16.24 1.61787C17.5855 1.57529 18.931 1.92444 20.0807 2.60572C20.6257 2.92932 21.1281 3.32105 21.5454 3.79794C21.9286 4.24928 22.2352 4.78578 22.4651 5.3308C23.0016 6.61669 23.189 8.03885 23.1208 9.41842C23.1038 9.69944 23.5466 9.69944 23.5551 9.41842C23.6233 8.124 23.4615 6.78701 23.0186 5.56073C22.7972 4.94758 22.5077 4.35147 22.1245 3.832C21.7327 3.2955 21.2558 2.86119 20.7193 2.48649C18.403 0.894024 15.2862 0.740738 12.8507 2.13734C11.5477 2.88674 10.4747 4.01935 9.81902 5.37338C9.6998 5.62034 10.0745 5.84175 10.1937 5.59479Z" fill="black"/>
<path d="M7.44274 13.3356C8.08143 13.1994 8.57535 12.8076 8.89044 12.2371C9.21404 11.641 9.37584 10.9767 9.60577 10.3466C9.74202 9.97185 9.86976 9.56309 9.74203 9.16285C9.63983 8.84776 9.37584 8.55822 9.03521 8.49861C8.67754 8.439 8.35394 8.64338 8.19213 8.95847C8.02182 9.29059 8.04737 9.65677 8.20065 9.98889C8.35394 10.321 8.60941 10.5935 8.84786 10.8745C9.06076 11.1215 9.27365 11.3685 9.49506 11.6069C9.95492 12.1179 10.4318 12.6203 10.9513 13.0802C12.1009 14.1106 13.4549 14.9196 15.0048 15.1495C15.6606 15.2432 16.2993 15.2176 16.955 15.1495C17.4404 15.0984 17.9343 15.0473 18.4027 15.2176C19.0243 15.4476 19.5779 16.0437 19.8589 16.6313C20.1655 17.2614 20.1484 18.1641 19.5608 18.641C19.0243 19.0753 18.1642 18.9731 17.9088 18.2919C17.6533 17.6106 18.0365 16.8612 18.326 16.2566C18.5985 15.6945 18.9051 15.124 19.3905 14.7152C19.91 14.2809 20.5657 13.9147 21.247 14.1361C21.528 14.2298 21.7835 14.4257 21.7324 14.7493C21.6813 15.0644 21.4514 15.3283 21.1789 15.4731C20.6253 15.7797 19.9355 15.6945 19.3905 15.405C17.9428 14.6471 17.8917 12.7565 18.5304 11.4281C18.7859 10.8916 19.4757 10.023 20.1399 10.5339C20.7105 10.9682 20.6253 11.8283 20.3784 12.4074C20.0718 13.1312 19.5097 13.7103 19.0073 14.2979C18.4623 14.9451 17.9769 15.6349 17.5851 16.3843C16.8187 17.849 16.41 19.5096 16.5803 21.1702C16.6654 21.9878 16.8783 22.7883 17.2445 23.5377C17.5766 24.2189 18.0535 24.9257 18.7689 25.2493C19.4075 25.5389 20.1399 25.4111 20.5402 24.8065C20.8723 24.3211 20.9063 23.6058 20.5657 23.1119C20.191 22.5754 19.5097 22.371 18.8796 22.4817C18.1727 22.6094 17.6703 23.163 17.4744 23.8272C17.2445 24.5936 17.3893 25.3941 17.5937 26.1435C17.8236 26.9781 18.0961 27.7871 18.0195 28.6727C17.9428 29.4647 17.6192 30.1971 17.1338 30.8102C16.691 31.3637 16.2141 31.9343 16.0693 32.6496C15.9246 33.3394 16.1034 34.157 16.6058 34.6679C17.253 35.3151 18.1642 35.0767 18.8285 34.5998C19.4331 34.1655 19.9185 33.5864 20.3698 32.9903C20.5402 32.7689 20.1569 32.5475 19.9951 32.7689C19.5608 33.3565 19.0584 33.9611 18.4282 34.3528C18.1131 34.5487 17.7129 34.702 17.3808 34.6253C16.8017 34.4806 16.5036 33.8163 16.4696 33.2458C16.4355 32.6667 16.691 32.1472 17.0231 31.6873C17.219 31.4234 17.4319 31.1679 17.6277 30.9124C17.8577 30.6058 18.0365 30.2652 18.1813 29.916C18.4878 29.1326 18.556 28.281 18.4027 27.455C18.2494 26.6119 17.8662 25.8114 17.8151 24.9513C17.7725 24.2785 17.9173 23.4695 18.5389 23.0948C19.0499 22.7883 19.8333 22.8479 20.1995 23.3503C20.5146 23.7846 20.3954 24.4744 19.9866 24.8065C19.3565 25.309 18.556 24.6958 18.1557 24.1934C17.1423 22.9245 16.8528 21.1191 17.0316 19.5522C17.2275 17.8916 17.9854 16.3162 19.0073 15.0047C19.8589 13.9062 21.3407 12.6544 20.9489 11.0874C20.7871 10.4232 20.2251 9.86966 19.5012 9.9974C18.7433 10.1337 18.2749 10.9001 18.0109 11.5558C17.4574 12.9439 17.5852 14.7322 18.9051 15.6434C19.4416 16.0096 20.1144 16.1884 20.7531 16.0863C21.3917 15.9841 22.0134 15.5498 22.1497 14.894C22.3029 14.1361 21.6217 13.7103 20.9574 13.6507C20.2591 13.5826 19.6204 13.9743 19.101 14.4086C18.6156 14.8174 18.2835 15.388 18.0024 15.95C17.7044 16.5546 17.3382 17.2614 17.3978 17.9512C17.4574 18.6921 17.9598 19.2967 18.7178 19.3478C19.4331 19.3989 20.0803 18.9476 20.3443 18.2919C20.6338 17.5765 20.4805 16.759 20.0718 16.1203C19.7141 15.5668 19.1776 15.0558 18.556 14.8174C18.0791 14.63 17.5596 14.6641 17.0572 14.7152C16.427 14.7748 15.8053 14.8259 15.1837 14.7493C13.6423 14.5534 12.2968 13.7274 11.1642 12.6969C10.6532 12.2286 10.1763 11.7261 9.70796 11.2067C9.50358 10.9767 9.30772 10.7468 9.10333 10.5169C8.85637 10.2358 8.55832 9.92076 8.51574 9.52903C8.49019 9.25652 8.69457 8.83924 9.01818 8.95847C9.40139 9.09472 9.39287 9.58864 9.30771 9.90373C9.21404 10.2529 9.06927 10.5935 8.95856 10.9341C8.85637 11.2407 8.75418 11.5558 8.61793 11.8539C8.35394 12.4159 7.96221 12.7991 7.34055 12.9354C7.05101 12.9694 7.16171 13.3952 7.44274 13.3356Z" fill="black"/>
<path d="M7.55425 14.3147C7.09439 14.1359 6.84743 13.6334 6.71118 13.1906C6.51531 12.5689 6.4557 11.9132 6.4557 11.266C6.4557 10.6444 6.50679 10.0227 6.65156 9.41806C6.81337 8.72828 7.14549 8.14068 7.60534 7.59567C8.28661 6.78666 9.14672 6.09687 10.126 5.67959C10.3815 5.56889 10.1601 5.19419 9.90463 5.3049C8.98492 5.70514 8.15036 6.34383 7.4776 7.08471C6.93259 7.68083 6.47273 8.37061 6.26835 9.16259C6.09803 9.80979 6.0299 10.4825 6.02139 11.1468C6.01287 11.8451 6.06397 12.5689 6.26835 13.2502C6.4557 13.8804 6.79633 14.502 7.43503 14.749C7.69902 14.8342 7.80972 14.4169 7.55425 14.3147Z" fill="#4A4A4A"/>
<path d="M9.53826 6.95729C9.83632 5.85022 10.8923 5.13489 11.8972 4.70909C13.0638 4.20666 14.3412 4.04485 15.6016 4.16408C18.4714 4.42807 21.0517 6.11421 22.5846 8.52421C23.334 9.70791 23.8535 11.0364 24.1004 12.416C24.3729 13.9062 24.3048 15.4306 24.3048 16.9379C24.2963 18.4282 24.3303 19.9525 24.7902 21.3747C25.0201 22.09 25.3863 22.7287 25.7355 23.3844C26.0846 24.0316 26.3316 24.7129 26.2379 25.4623C26.0505 26.9696 24.8668 28.0767 23.7172 28.9368C23.1211 29.3796 22.4739 29.7884 21.9289 30.2908C21.4094 30.7762 20.9836 31.3553 20.5748 31.9344C20.379 32.2154 20.1746 32.4964 19.9702 32.7689C19.7999 32.9903 20.1746 33.2117 20.3449 32.9903C20.7877 32.4112 21.1795 31.7896 21.6478 31.2275C22.1503 30.6229 22.7464 30.1801 23.3766 29.7202C24.6029 28.8261 25.8547 27.8808 26.4338 26.4246C26.7063 25.7348 26.7829 24.9769 26.5785 24.253C26.3656 23.5036 25.9143 22.8649 25.5822 22.1752C24.8924 20.7786 24.7561 19.1946 24.7391 17.6532C24.7221 16.0778 24.8243 14.4938 24.6199 12.9269C24.4325 11.4877 23.9812 10.0826 23.2744 8.81375C21.8352 6.23343 19.323 4.3344 16.3935 3.81493C15.0566 3.57648 13.677 3.62758 12.3826 4.04485C11.2585 4.41104 10.0918 5.0327 9.44459 6.06312C9.29982 6.30156 9.18911 6.55704 9.11247 6.82103C9.04434 7.11057 9.46162 7.22979 9.53826 6.95729Z" fill="black"/>
<path d="M20.2253 2.40126C18.1815 1.02168 15.7118 0.221191 13.0634 0.221191C5.9782 0.221191 0.22998 5.96941 0.22998 13.0546V22.9501C0.22998 30.0353 5.9782 35.7835 13.0634 35.7835C14.9114 35.7835 16.6741 35.3918 18.2666 34.685C18.2666 34.685 17.7812 34.9404 17.3128 34.8638C16.7763 34.7786 16.2398 34.3103 16.2398 33.3309C16.2398 31.7981 17.3554 30.9805 17.5768 30.5803C17.7982 30.1715 18.2496 29.5328 18.2496 28.4598C18.2496 27.8637 17.8238 26.6289 17.6705 25.5474C17.5513 24.6958 17.6875 23.8868 17.6875 23.8868C17.6875 23.8868 17.134 22.9416 16.9041 21.843C16.6741 20.7445 16.87 19.1094 16.87 19.1094C15.2264 20.9318 10.7641 20.0121 9.28236 18.3345C8.04756 16.9379 7.33222 14.9707 7.39183 13.1142V14.4683C7.39183 14.4683 7.07675 14.4768 6.79572 13.9318C6.3529 13.0887 5.91859 11.3514 6.39548 9.58866C7.17894 6.68474 10.0232 5.47549 10.0232 5.47549C10.9685 3.49129 12.8761 1.98398 15.0306 1.53264C17.1851 1.08129 19.5355 1.67741 21.2046 3.10807L20.2253 2.40126Z" fill="#4A4A4A"/>
<path d="M20.3361 2.21384C17.9601 0.621373 15.0988 -0.153572 12.246 0.0252619C9.92967 0.170032 7.66445 0.936461 5.74838 2.23939C3.85785 3.52529 2.31648 5.29659 1.32012 7.34892C0.442984 9.15429 0.0086746 11.13 0.0086746 13.1397C0.0086746 14.3064 0.0086746 15.4646 0.0086746 16.6312C0.0086746 18.2407 0.0086746 19.8417 0.0086746 21.4512C0.0086746 22.6775 -0.00835728 23.8953 0.187508 25.113C0.562207 27.3783 1.55856 29.5243 3.03181 31.2956C4.49654 33.0584 6.42113 34.4124 8.57565 35.2044C11.0197 36.107 13.7363 36.2433 16.2655 35.6046C16.9893 35.4258 17.6962 35.1703 18.3774 34.8722C18.3008 34.7445 18.2327 34.6168 18.156 34.4975C17.7047 34.7275 17.1341 34.7275 16.7764 34.3443C16.3251 33.8589 16.4017 33.0328 16.5891 32.4537C16.7594 31.9513 17.066 31.5255 17.4066 31.1253C17.6706 30.8187 17.8665 30.5036 18.0453 30.1374C18.3263 29.5583 18.5052 28.8856 18.4285 28.2384C18.3434 27.5145 18.1134 26.8077 17.9601 26.1009C17.8154 25.4026 17.7643 24.6787 17.858 23.9889C17.875 23.8442 17.8409 23.7675 17.7728 23.6483C17.6451 23.4184 17.5344 23.1714 17.4322 22.933C17.1171 22.158 16.9723 21.3831 16.9723 20.5485C16.9723 20.0716 16.9979 19.5948 17.0489 19.1179C17.0745 18.9305 16.7935 18.8368 16.6742 18.9646C15.6183 20.1142 13.7022 20.0205 12.3141 19.6969C11.5307 19.5181 10.7642 19.2286 10.0915 18.7772C9.34208 18.2833 8.81409 17.5084 8.41385 16.7249C7.84328 15.6178 7.54523 14.366 7.57929 13.1227C7.43452 13.1227 7.28975 13.1227 7.14498 13.1227C7.14498 13.574 7.14498 14.0254 7.14498 14.4767C7.22162 14.4001 7.28975 14.3319 7.36639 14.2553C7.33233 14.2553 7.426 14.2808 7.36639 14.2553C7.32381 14.2383 7.3153 14.2383 7.2642 14.2042C7.11092 14.102 7.00873 13.9232 6.93208 13.7614C6.76177 13.4207 6.65106 13.0546 6.55738 12.6884C6.31894 11.6835 6.31894 10.602 6.59996 9.60563C6.98318 8.2516 7.89438 7.11899 9.02699 6.30998C9.33356 6.09708 9.64865 5.8927 9.98928 5.7309C10.1 5.67981 10.1511 5.66277 10.2107 5.54355C10.4236 5.16034 10.628 4.78564 10.892 4.42797C11.9309 3.03988 13.4978 2.04353 15.201 1.71992C17.2363 1.33671 19.4419 1.9243 21.0173 3.26981C21.1025 3.1591 21.1962 3.03988 21.2813 2.92918C20.9748 2.69073 20.6512 2.45229 20.3361 2.21384C20.1061 2.04352 19.8933 2.42674 20.1147 2.58854C20.4383 2.82699 20.7619 3.06543 21.077 3.30388C21.2728 3.44865 21.5283 3.12504 21.341 2.96324C19.8507 1.69437 17.858 1.03865 15.8993 1.19194C14.0258 1.33671 12.246 2.23939 10.9856 3.636C10.6791 3.97663 10.4066 4.3343 10.1681 4.72603C10.1085 4.82822 10.0489 4.93041 9.98928 5.0326C9.96374 5.08369 9.93819 5.12628 9.91264 5.17737C9.90413 5.20292 9.88709 5.22847 9.87858 5.25401C9.87006 5.27104 9.836 5.37323 9.87006 5.31362C9.87858 5.28807 9.89561 5.29659 9.85303 5.32214C9.52943 5.46691 9.22286 5.65426 8.93332 5.85012C7.71554 6.68468 6.71919 7.85136 6.25933 9.26499C5.91869 10.3039 5.88463 11.428 6.0805 12.501C6.15714 12.9353 6.28488 13.3611 6.45519 13.7614C6.59996 14.102 6.78731 14.4767 7.13646 14.6385C7.21311 14.6726 7.29827 14.6981 7.37491 14.6981C7.49413 14.6981 7.59632 14.5959 7.59632 14.4767C7.59632 14.0254 7.59632 13.574 7.59632 13.1227C7.59632 12.8417 7.17053 12.8417 7.16201 13.1227C7.12795 14.2979 7.38343 15.4731 7.86031 16.5461C8.26056 17.4573 8.83964 18.377 9.64013 18.9816C10.3129 19.4926 11.1219 19.8247 11.9309 20.0461C12.791 20.276 13.7022 20.3952 14.5879 20.3101C15.4735 20.2249 16.3932 19.9439 17.0064 19.2712C16.8786 19.2201 16.7594 19.169 16.6317 19.1179C16.538 19.8843 16.5124 20.6848 16.5976 21.4512C16.6998 22.3369 17.0319 23.231 17.4747 23.9975C17.4662 23.9379 17.4577 23.8868 17.4492 23.8271C17.2789 24.832 17.4407 25.8199 17.6706 26.7992C17.7898 27.2931 17.9516 27.7955 17.9942 28.298C18.0368 28.7834 17.9346 29.2943 17.7473 29.7457C17.628 30.0267 17.4747 30.3418 17.2874 30.5888C17.1256 30.8016 16.8871 31.0571 16.7083 31.2956C16.1548 32.045 15.8141 33.0839 16.0952 34.0121C16.2314 34.472 16.555 34.8552 17.0064 35.017C17.4407 35.1788 17.9516 35.0851 18.3604 34.8722C18.6159 34.7445 18.3945 34.3868 18.139 34.4975C15.6438 35.5961 12.7995 35.8601 10.1426 35.2299C7.9625 34.719 5.94424 33.6204 4.32622 32.0705C2.71672 30.5291 1.5245 28.5705 0.911358 26.4245C0.59627 25.3089 0.434468 24.1593 0.425952 23.0011C0.425952 22.7371 0.425952 22.4646 0.425952 22.2006C0.425952 20.7529 0.425952 19.3052 0.425952 17.866C0.425952 16.4609 0.425952 15.0558 0.425952 13.6507C0.425952 13.3015 0.417437 12.9524 0.434469 12.6032C0.477048 11.4451 0.672913 10.2954 1.03058 9.19686C1.71185 7.08493 2.95517 5.16885 4.60725 3.68709C6.27636 2.17978 8.34572 1.14084 10.5513 0.698017C13.1487 0.170033 15.9163 0.493636 18.3263 1.60922C18.9395 1.89876 19.5356 2.23088 20.0976 2.60557C20.3446 2.75034 20.566 2.37564 20.3361 2.21384Z" fill="black"/>
<path d="M10.0066 15.3878C9.24015 15.3878 8.64404 14.9365 8.64404 14.3574C8.64404 14.2382 8.73772 14.136 8.86546 14.136C8.98468 14.136 9.08687 14.2297 9.08687 14.3574C9.08687 14.681 9.51266 14.9535 10.0151 14.9535C10.5175 14.9535 10.9433 14.681 10.9433 14.3574C10.9433 14.2382 11.037 14.136 11.1647 14.136C11.284 14.136 11.3862 14.2297 11.3862 14.3574C11.3776 14.9365 10.773 15.3878 10.0066 15.3878Z" fill="black"/>
<path d="M0.22168 22.3031V22.9503C0.22168 30.0355 5.9699 35.7837 13.0551 35.7837C13.5065 35.7837 13.9493 35.7582 14.3921 35.7156H14.4091C14.5624 35.4601 14.6561 35.1535 14.6561 34.8299V24.0148C14.6305 23.061 13.7875 22.269 12.9444 22.3031H0.332386H0.22168Z" fill="white"/>
<path d="M4.93066 32.8798C4.93066 32.8798 8.1156 35.7837 13.0548 35.7837C13.5062 35.7837 13.949 35.7582 14.3918 35.7156H14.4088C14.5621 35.4601 14.6558 35.1535 14.6558 34.8299V24.0148C14.6302 23.061 13.7872 22.269 12.9441 22.3031L4.93066 32.8798Z" fill="#E5E5E4"/>
<path d="M13.0636 35.9964C5.86771 35.9964 0.00878906 30.1374 0.00878906 22.9415V22.2943C0.00878906 22.1751 0.102464 22.0729 0.230202 22.0729H12.9529C13.3958 22.0559 13.8556 22.2347 14.2218 22.5753C14.622 22.95 14.8605 23.461 14.8775 23.989V34.8041C14.8775 35.1618 14.7838 35.5024 14.5965 35.8005C14.5624 35.8601 14.5028 35.8942 14.4347 35.9027H14.4177C13.9663 35.9793 13.515 35.9964 13.0636 35.9964ZM0.443099 22.5157V22.9415C0.443099 29.899 6.10616 35.5535 13.0551 35.5535C13.4639 35.5535 13.8726 35.5365 14.2729 35.4939C14.3836 35.281 14.4347 35.0511 14.4347 34.8126V23.9975C14.4262 23.5887 14.2303 23.1885 13.9152 22.8904C13.6342 22.6264 13.2765 22.4817 12.9529 22.4987L0.443099 22.5157Z" fill="black"/>
<path d="M15.6267 16.708C16.4968 16.708 17.2021 16.5288 17.2021 16.3077C17.2021 16.0867 16.4968 15.9075 15.6267 15.9075C14.7566 15.9075 14.0513 16.0867 14.0513 16.3077C14.0513 16.5288 14.7566 16.708 15.6267 16.708Z" fill="#4A4A4A"/>
<path d="M9.69165 16.708C10.5617 16.708 11.2671 16.5288 11.2671 16.3077C11.2671 16.0867 10.5617 15.9075 9.69165 15.9075C8.82156 15.9075 8.11621 16.0867 8.11621 16.3077C8.11621 16.5288 8.82156 16.708 9.69165 16.708Z" fill="#4A4A4A"/>
</svg>
