<svg width="22" height="20" viewBox="0 0 22 20" fill="none" xmlns="http://www.w3.org/2000/svg">
<path d="M11.75 10.2499V15.4999C11.75 15.6988 11.671 15.8896 11.5304 16.0303C11.3897 16.1709 11.199 16.2499 11 16.2499C10.8011 16.2499 10.6104 16.1709 10.4697 16.0303C10.3291 15.8896 10.25 15.6988 10.25 15.4999V10.2499C10.25 10.051 10.3291 9.86026 10.4697 9.71961C10.6104 9.57895 10.8011 9.49994 11 9.49994C11.199 9.49994 11.3897 9.57895 11.5304 9.71961C11.671 9.86026 11.75 10.051 11.75 10.2499ZM15.2038 10.1749L14.6788 15.4249C14.6684 15.5232 14.6776 15.6226 14.7057 15.7173C14.7339 15.8121 14.7805 15.9003 14.8429 15.977C14.9053 16.0537 14.9822 16.1172 15.0692 16.1641C15.1563 16.2109 15.2517 16.2401 15.35 16.2499C15.3753 16.2513 15.4007 16.2513 15.426 16.2499C15.6118 16.2497 15.7908 16.1805 15.9285 16.0558C16.0662 15.9311 16.1527 15.7598 16.1713 15.5749L16.6963 10.3249C16.7162 10.127 16.6566 9.92931 16.5308 9.77529C16.4049 9.62128 16.223 9.52358 16.025 9.50369C15.8271 9.4838 15.6294 9.54334 15.4754 9.66923C15.3214 9.79511 15.2237 9.97702 15.2038 10.1749ZM6.7963 10.1749C6.77641 9.97702 6.67871 9.79511 6.52469 9.66923C6.37068 9.54334 6.17297 9.4838 5.97505 9.50369C5.77713 9.52358 5.59522 9.62128 5.46934 9.77529C5.34345 9.92931 5.28391 10.127 5.3038 10.3249L5.8288 15.5749C5.84746 15.7606 5.93464 15.9326 6.07332 16.0574C6.212 16.1822 6.39222 16.2509 6.5788 16.2499C6.60409 16.2513 6.62944 16.2513 6.65474 16.2499C6.75274 16.2401 6.84784 16.211 6.93461 16.1644C7.02138 16.1178 7.09812 16.0546 7.16045 15.9783C7.22278 15.9021 7.26948 15.8143 7.29789 15.72C7.32629 15.6257 7.33584 15.5267 7.32599 15.4287L6.7963 10.1749ZM21.4935 7.34931L20.0807 17.9487C20.0314 18.3084 19.8538 18.6382 19.5805 18.8773C19.3073 19.1164 18.9569 19.2488 18.5938 19.2499H3.4063C3.04322 19.2488 2.69278 19.1164 2.41955 18.8773C2.14632 18.6382 1.96871 18.3084 1.91943 17.9487L0.506613 7.34931C0.49245 7.24337 0.501097 7.13562 0.531974 7.03328C0.562851 6.93095 0.615245 6.8364 0.685645 6.75597C0.756044 6.67554 0.842823 6.61109 0.940164 6.56693C1.03751 6.52277 1.14316 6.49993 1.25005 6.49994H5.40974L10.4375 0.755875C10.5079 0.67607 10.5945 0.612154 10.6915 0.568375C10.7885 0.524595 10.8936 0.501953 11 0.501953C11.1065 0.501953 11.2116 0.524595 11.3086 0.568375C11.4056 0.612154 11.4922 0.67607 11.5625 0.755875L16.5904 6.49994H20.75C20.8569 6.49993 20.9626 6.52277 21.0599 6.56693C21.1573 6.61109 21.2441 6.67554 21.3145 6.75597C21.3849 6.8364 21.4372 6.93095 21.4681 7.03328C21.499 7.13562 21.5076 7.24337 21.4935 7.34931ZM7.40286 6.49994H14.5972L11 2.389L7.40286 6.49994ZM19.8932 7.99994H2.10693L3.4063 17.7499H18.5938L19.8932 7.99994Z" fill="black"/>
</svg>
