<svg width="33" height="32" viewBox="0 0 33 32" fill="none" xmlns="http://www.w3.org/2000/svg">
<path d="M19.6724 27.1233C18.6107 27.5945 17.4412 27.8557 16.2036 27.8557C11.4801 27.8557 7.64795 24.0235 7.64795 19.3V12.7031C7.64795 7.97961 11.4801 4.14746 16.2036 4.14746C17.9692 4.14746 19.6156 4.68112 20.9781 5.60084L21.6253 6.07773C22.7381 7.03151 23.1412 8.81416 23.0617 10.2789L23.1298 10.4208C23.4421 11.0907 23.6578 11.8118 23.76 12.5441C24.0495 14.6447 23.4932 16.9213 24.4129 18.8288C24.6627 19.3455 25.0203 19.828 25.1225 20.3958C25.2701 21.1849 24.8841 21.9967 24.3391 22.5872C23.7941 23.1776 23.1014 23.6091 22.4599 24.0973C21.8184 24.5856 21.3926 25.3293 20.9327 25.9254C20.9327 25.9254 20.558 26.425 20.3366 26.6407C20.1152 26.8565 19.6724 27.1233 19.6724 27.1233Z" fill="white"/>
<path d="M19.6039 26.9982C18.3095 27.5716 16.8731 27.7987 15.4652 27.6795C14.3581 27.5829 13.2681 27.265 12.2859 26.7427C11.3208 26.2318 10.4635 25.5335 9.75955 24.6989C9.05557 23.8643 8.52191 22.8879 8.19263 21.8489C7.92579 20.9973 7.80089 20.1174 7.80089 19.2317C7.80089 18.7435 7.80089 18.2609 7.80089 17.7726C7.80089 16.9722 7.80089 16.166 7.80089 15.3655C7.80089 14.6729 7.80089 13.9859 7.80089 13.2933C7.80089 12.7823 7.79522 12.2714 7.85199 11.7604C7.97121 10.6591 8.3232 9.58037 8.86254 8.61524C9.3962 7.66146 10.1115 6.82123 10.9631 6.13428C11.8147 5.45301 12.8026 4.93638 13.8528 4.62981C15.0224 4.28917 16.2714 4.20401 17.4749 4.38568C18.7126 4.57303 19.9729 5.03289 20.9892 5.78229C21.2957 6.00938 21.5966 6.20808 21.8407 6.49195C22.2381 6.94613 22.4993 7.50817 22.6753 8.08158C22.8513 8.67201 22.9365 9.29083 22.9365 9.90398C22.9365 9.9721 22.9365 10.0402 22.9308 10.114C22.9308 10.1878 22.9137 10.273 22.9365 10.3411C22.9648 10.4263 23.0216 10.5114 23.0557 10.5966C23.209 10.9429 23.3395 11.3006 23.436 11.6696C23.8221 13.1059 23.6745 14.5877 23.7142 16.0524C23.7313 16.7621 23.7994 17.4718 24.0038 18.153C24.106 18.488 24.2422 18.8116 24.4069 19.1182C24.5715 19.4247 24.7645 19.7256 24.8837 20.0549C25.1335 20.7248 24.9803 21.4118 24.6112 22.0022C24.2252 22.6153 23.6404 23.0582 23.067 23.4783C22.7832 23.6883 22.4823 23.8814 22.2154 24.1141C21.9543 24.3412 21.7329 24.6024 21.5285 24.8749C21.2162 25.2893 20.9267 25.7208 20.6031 26.1296C20.4441 26.3226 20.2852 26.5156 20.0865 26.6689C19.9275 26.7881 19.7629 26.896 19.6039 26.9982C19.4449 27.0947 19.5925 27.3502 19.7515 27.248C19.9275 27.1344 20.1035 27.0152 20.2681 26.8903C20.4782 26.7257 20.6485 26.5327 20.8132 26.3283C21.1481 25.9082 21.449 25.4597 21.7726 25.0282C21.9883 24.75 22.2211 24.4832 22.4936 24.2617C22.7832 24.0233 23.0954 23.8189 23.3963 23.5975C23.9754 23.166 24.5431 22.7005 24.9121 22.0703C25.2641 21.4685 25.4174 20.7589 25.196 20.0833C25.0825 19.7427 24.9065 19.4361 24.7305 19.1238C24.5545 18.8002 24.3955 18.471 24.2876 18.119C23.8505 16.7053 24.0265 15.1952 23.9924 13.7418C23.9754 12.9867 23.8959 12.2373 23.6858 11.505C23.578 11.1303 23.4417 10.7612 23.2828 10.4093C23.2601 10.3638 23.243 10.3241 23.2203 10.2787C23.209 10.2616 23.2033 10.2446 23.1919 10.2219C23.1806 10.1992 23.1976 10.2276 23.1976 10.2276C23.209 10.2503 23.209 10.2503 23.209 10.2276C23.209 10.2162 23.209 10.2049 23.209 10.1935C23.2146 10.0402 23.2146 9.88127 23.2146 9.72798C23.1806 8.50737 22.8513 7.19025 22.0167 6.25918C21.7556 5.96964 21.4377 5.75958 21.1254 5.53249C20.6542 5.18618 20.1149 4.90799 19.5812 4.6809C18.3095 4.14156 16.9072 3.92015 15.5276 4.02802C14.3752 4.11885 13.2454 4.43678 12.2178 4.96476C11.2243 5.47572 10.3329 6.1797 9.60626 7.02561C8.8739 7.8772 8.30617 8.87072 7.9485 9.93804C7.64193 10.8464 7.5 11.8002 7.5 12.754C7.5 13.2365 7.5 13.7191 7.5 14.2017C7.5 15.0192 7.5 15.8367 7.5 16.6486C7.5 17.3525 7.5 18.0565 7.5 18.7605C7.5 19.3169 7.5 19.8732 7.5738 20.4239C7.72141 21.5594 8.09043 22.6551 8.66384 23.6486C9.22021 24.6137 9.96393 25.471 10.8439 26.1523C11.7409 26.8506 12.7628 27.3729 13.8528 27.6795C15.0848 28.0258 16.3906 28.0882 17.6509 27.8782C18.3719 27.7589 19.0702 27.5432 19.7402 27.248C19.9218 27.1742 19.7742 26.9244 19.6039 26.9982Z" fill="#4A4A4A"/>
<path d="M14.296 7.72994C15.034 6.19141 16.618 5.12408 18.3268 5.07866C19.2238 5.05028 20.1208 5.28304 20.8873 5.73722C21.2506 5.95296 21.5856 6.21411 21.8638 6.53204C22.1192 6.83293 22.3236 7.1906 22.4769 7.55395C22.8346 8.41121 22.9595 9.35931 22.914 10.279C22.9027 10.4664 23.1979 10.4664 23.2036 10.279C23.249 9.41608 23.1411 8.52476 22.8459 7.70723C22.6983 7.29847 22.5053 6.90106 22.2498 6.55475C21.9887 6.19708 21.6707 5.90754 21.3131 5.65774C19.7688 4.5961 17.691 4.49391 16.0673 5.42498C15.1987 5.92457 14.4833 6.67965 14.0462 7.58233C13.9667 7.74697 14.2165 7.89458 14.296 7.72994Z" fill="black"/>
<path d="M12.4623 12.8905C12.8881 12.7997 13.2174 12.5385 13.4274 12.1581C13.6432 11.7607 13.751 11.3179 13.9043 10.8978C13.9952 10.648 14.0803 10.3755 13.9952 10.1086C13.927 9.89859 13.751 9.70556 13.524 9.66582C13.2855 9.62608 13.0698 9.76233 12.9619 9.97239C12.8484 10.1938 12.8654 10.4379 12.9676 10.6593C13.0698 10.8808 13.2401 11.0624 13.3991 11.2498C13.541 11.4144 13.6829 11.5791 13.8305 11.738C14.1371 12.0787 14.455 12.4136 14.8013 12.7202C15.5678 13.4071 16.4705 13.9465 17.5037 14.0998C17.9409 14.1622 18.3667 14.1452 18.8038 14.0998C19.1274 14.0657 19.4567 14.0316 19.7689 14.1452C20.1834 14.2985 20.5524 14.6959 20.7397 15.0876C20.9441 15.5077 20.9328 16.1095 20.541 16.4274C20.1834 16.717 19.61 16.6488 19.4397 16.1947C19.2693 15.7405 19.5248 15.2409 19.7178 14.8378C19.8995 14.4631 20.1039 14.0827 20.4275 13.8102C20.7738 13.5207 21.211 13.2766 21.6651 13.4242C21.8525 13.4866 22.0228 13.6172 21.9887 13.8329C21.9547 14.043 21.8014 14.219 21.6197 14.3155C21.2507 14.5199 20.7908 14.4631 20.4275 14.2701C19.4624 13.7648 19.4283 12.5044 19.8541 11.6188C20.0244 11.2611 20.4843 10.682 20.9271 11.0227C21.3075 11.3122 21.2507 11.8856 21.0861 12.2717C20.8817 12.7542 20.507 13.1403 20.172 13.532C19.8087 13.9635 19.4851 14.4234 19.2239 14.923C18.713 15.8994 18.4405 17.0065 18.554 18.1136C18.6108 18.6586 18.7527 19.1923 18.9968 19.6918C19.2182 20.146 19.5362 20.6172 20.0131 20.833C20.4389 21.026 20.9271 20.9408 21.1939 20.5378C21.4153 20.2142 21.4381 19.7373 21.211 19.408C20.9612 19.0503 20.507 18.9141 20.0869 18.9879C19.6157 19.073 19.2807 19.4421 19.1501 19.8849C18.9968 20.3958 19.0933 20.9295 19.2296 21.4291C19.3829 21.9855 19.5646 22.5248 19.5135 23.1152C19.4624 23.6432 19.2466 24.1315 18.923 24.5402C18.6278 24.9092 18.3099 25.2896 18.2134 25.7665C18.1169 26.2264 18.2361 26.7714 18.571 27.112C19.0025 27.5435 19.61 27.3845 20.0528 27.0666C20.4559 26.7771 20.7795 26.391 21.0804 25.9936C21.1939 25.846 20.9385 25.6984 20.8306 25.846C20.541 26.2377 20.2061 26.6408 19.786 26.902C19.5759 27.0325 19.3091 27.1347 19.0877 27.0836C18.7016 26.9871 18.5029 26.5443 18.4802 26.1639C18.4575 25.7779 18.6278 25.4316 18.8492 25.125C18.9798 24.949 19.1217 24.7787 19.2523 24.6084C19.4056 24.404 19.5248 24.1769 19.6213 23.9441C19.8257 23.4218 19.8711 22.8541 19.7689 22.3034C19.6667 21.7413 19.4113 21.2077 19.3772 20.6343C19.3488 20.1858 19.4453 19.6464 19.8598 19.3966C20.2004 19.1923 20.7227 19.232 20.9668 19.567C21.1769 19.8565 21.0974 20.3163 20.8249 20.5378C20.4048 20.8727 19.8711 20.464 19.6043 20.129C18.9287 19.2831 18.7357 18.0795 18.8549 17.0349C18.9855 15.9278 19.4908 14.8775 20.172 14.0032C20.7397 13.2709 21.7276 12.4363 21.4664 11.3917C21.3586 10.9489 20.9839 10.5799 20.5013 10.665C19.996 10.7559 19.6838 11.2668 19.5078 11.704C19.1388 12.6293 19.2239 13.8216 20.1039 14.429C20.4616 14.6732 20.9101 14.7924 21.3359 14.7243C21.7617 14.6561 22.1761 14.3666 22.2669 13.9294C22.3691 13.4242 21.9149 13.1403 21.4721 13.1006C21.0066 13.0551 20.5808 13.3163 20.2345 13.6058C19.9109 13.8783 19.6895 14.2587 19.5021 14.6334C19.3034 15.0365 19.0593 15.5077 19.099 15.9676C19.1388 16.4615 19.4737 16.8646 19.979 16.8986C20.4559 16.9327 20.8874 16.6318 21.0634 16.1947C21.2564 15.7178 21.1542 15.1728 20.8817 14.747C20.6432 14.3779 20.2856 14.0373 19.8711 13.8783C19.5532 13.7534 19.2069 13.7762 18.8719 13.8102C18.4518 13.85 18.0374 13.884 17.6229 13.8329C16.5954 13.7023 15.6983 13.1517 14.9433 12.4647C14.6026 12.1525 14.2847 11.8175 13.9725 11.4712C13.8362 11.3179 13.7056 11.1646 13.5694 11.0113C13.4047 10.824 13.206 10.6139 13.1776 10.3528C13.1606 10.1711 13.2969 9.89291 13.5126 9.97239C13.7681 10.0632 13.7624 10.3925 13.7056 10.6026C13.6432 10.8353 13.5467 11.0624 13.4729 11.2895C13.4047 11.4939 13.3366 11.704 13.2458 11.9027C13.0698 12.2774 12.8086 12.5328 12.3942 12.6237C12.2012 12.6464 12.275 12.9302 12.4623 12.8905Z" fill="black"/>
<path d="M12.5362 13.5432C12.2296 13.424 12.065 13.089 11.9741 12.7938C11.8435 12.3794 11.8038 11.9422 11.8038 11.5108C11.8038 11.0963 11.8379 10.6819 11.9344 10.2788C12.0422 9.81893 12.2637 9.4272 12.5702 9.06386C13.0244 8.52452 13.5978 8.06466 14.2507 7.78648C14.421 7.71267 14.2734 7.46287 14.1031 7.53668C13.4899 7.80351 12.9336 8.2293 12.4851 8.72322C12.1217 9.12063 11.8152 9.58049 11.6789 10.1085C11.5654 10.5399 11.5199 10.9884 11.5143 11.4313C11.5086 11.8968 11.5426 12.3794 11.6789 12.8336C11.8038 13.2537 12.0309 13.6681 12.4567 13.8328C12.6327 13.8895 12.7065 13.6113 12.5362 13.5432Z" fill="#4A4A4A"/>
<path d="M13.8587 8.63803C14.0574 7.89998 14.7614 7.4231 15.4313 7.13923C16.2091 6.80428 17.0606 6.69641 17.9009 6.77589C19.8141 6.95188 21.5343 8.07598 22.5562 9.68264C23.0558 10.4718 23.4021 11.3574 23.5668 12.2771C23.7485 13.2707 23.703 14.2869 23.703 15.2918C23.6974 16.2853 23.7201 17.3015 24.0266 18.2496C24.1799 18.7265 24.424 19.1523 24.6568 19.5894C24.8896 20.0209 25.0542 20.4751 24.9918 20.9747C24.8669 21.9796 24.0777 22.7176 23.3113 23.291C22.9139 23.5862 22.4824 23.8587 22.1191 24.1937C21.7728 24.5173 21.4889 24.9034 21.2164 25.2894C21.0858 25.4768 20.9496 25.6641 20.8133 25.8458C20.6998 25.9934 20.9496 26.141 21.0631 25.9934C21.3583 25.6073 21.6195 25.1929 21.9317 24.8182C22.2667 24.4151 22.6641 24.1199 23.0842 23.8133C23.9017 23.2172 24.7363 22.587 25.1223 21.6162C25.304 21.1564 25.3551 20.6511 25.2189 20.1685C25.0769 19.6689 24.776 19.2431 24.5546 18.7833C24.0948 17.8522 24.0039 16.7962 23.9926 15.7687C23.9812 14.7184 24.0493 13.6624 23.9131 12.6178C23.7882 11.6583 23.4873 10.7216 23.0161 9.87567C22.0566 8.15546 20.3818 6.88943 18.4289 6.54312C17.5375 6.38416 16.6178 6.41822 15.7549 6.69641C15.0055 6.94053 14.2277 7.35497 13.7962 8.04192C13.6997 8.20088 13.6259 8.3712 13.5748 8.54719C13.5294 8.74022 13.8076 8.8197 13.8587 8.63803Z" fill="black"/>
<path d="M20.983 5.60084C19.6205 4.68112 17.9741 4.14746 16.2085 4.14746C11.485 4.14746 7.65283 7.97961 7.65283 12.7031V19.3C7.65283 24.0235 11.485 27.8557 16.2085 27.8557C17.4404 27.8557 18.6156 27.5945 19.6773 27.1233C19.6773 27.1233 19.3536 27.2936 19.0414 27.2425C18.6837 27.1858 18.3261 26.8735 18.3261 26.2206C18.3261 25.1987 19.0698 24.6537 19.2174 24.3869C19.365 24.1144 19.6659 23.6886 19.6659 22.9732C19.6659 22.5758 19.382 21.7526 19.2798 21.0316C19.2004 20.4639 19.2912 19.9245 19.2912 19.9245C19.2912 19.9245 18.9222 19.2944 18.7689 18.562C18.6156 17.8296 18.7462 16.7396 18.7462 16.7396C17.6505 17.9545 14.6756 17.3414 13.6878 16.223C12.8645 15.2919 12.3877 13.9805 12.4274 12.7428V13.6455C12.4274 13.6455 12.2173 13.6512 12.03 13.2878C11.7348 12.7258 11.4452 11.5676 11.7632 10.3924C12.2855 8.4565 14.1817 7.65033 14.1817 7.65033C14.8118 6.32753 16.0836 5.32265 17.5199 5.02176C18.9562 4.72086 20.5232 5.11827 21.6359 6.07205L20.983 5.60084Z" fill="black"/>
<path d="M21.0567 5.4759C19.4728 4.41425 17.5652 3.89762 15.6633 4.01684C14.1191 4.11335 12.609 4.62431 11.3316 5.49293C10.0712 6.35019 9.04367 7.53106 8.37943 8.89928C7.79467 10.1029 7.50513 11.42 7.50513 12.7598C7.50513 13.5376 7.50513 14.3097 7.50513 15.0875C7.50513 16.1605 7.50513 17.2278 7.50513 18.3008C7.50513 19.1183 7.49378 19.9302 7.62435 20.742C7.87415 22.2522 8.53839 23.6828 9.52056 24.8637C10.497 26.0389 11.7801 26.9416 13.2164 27.4696C14.8458 28.0714 16.6569 28.1622 18.343 27.7364C18.8256 27.6172 19.2968 27.4469 19.751 27.2482C19.6999 27.163 19.6545 27.0778 19.6034 26.9984C19.3025 27.1516 18.9221 27.1516 18.6836 26.8962C18.3827 26.5726 18.4338 26.0219 18.5587 25.6358C18.6723 25.3009 18.8767 25.017 19.1038 24.7502C19.2798 24.5458 19.4103 24.3357 19.5296 24.0916C19.7169 23.7056 19.8361 23.2571 19.785 22.8256C19.7283 22.343 19.575 21.8718 19.4728 21.4006C19.3763 20.9351 19.3422 20.4525 19.4047 19.9926C19.416 19.8961 19.3933 19.845 19.3479 19.7655C19.2627 19.6123 19.1889 19.4476 19.1208 19.2887C18.9107 18.772 18.8142 18.2554 18.8142 17.699C18.8142 17.3811 18.8313 17.0632 18.8653 16.7452C18.8823 16.6203 18.695 16.5579 18.6155 16.6431C17.9115 17.4095 16.6342 17.347 15.7088 17.1313C15.1865 17.0121 14.6755 16.819 14.227 16.5182C13.7274 16.1889 13.3754 15.6722 13.1086 15.1499C12.7282 14.4119 12.5295 13.5773 12.5522 12.7485C12.4557 12.7485 12.3592 12.7485 12.2627 12.7485C12.2627 13.0494 12.2627 13.3502 12.2627 13.6511C12.3138 13.6 12.3592 13.5546 12.4103 13.5035C12.3876 13.5035 12.45 13.5206 12.4103 13.5035C12.3819 13.4922 12.3762 13.4922 12.3422 13.4695C12.24 13.4013 12.1718 13.2821 12.1207 13.1743C12.0072 12.9472 11.9334 12.703 11.8709 12.4589C11.712 11.789 11.712 11.068 11.8993 10.4038C12.1548 9.50107 12.7623 8.74599 13.5173 8.20665C13.7217 8.06472 13.9318 7.92847 14.1589 7.8206C14.2327 7.78654 14.2667 7.77518 14.3065 7.6957C14.4484 7.44023 14.5847 7.19043 14.7607 6.95198C15.4533 6.02659 16.4979 5.36235 17.6334 5.14662C18.9902 4.89114 20.4606 5.28287 21.5109 6.17987C21.5677 6.10607 21.6301 6.02659 21.6869 5.95279C21.4825 5.79382 21.2668 5.63486 21.0567 5.4759C20.9034 5.36235 20.7615 5.61783 20.9091 5.72569C21.1249 5.88466 21.3406 6.04362 21.5507 6.20258C21.6812 6.2991 21.8515 6.08336 21.7266 5.97549C20.7331 5.12958 19.4047 4.69243 18.0989 4.79462C16.8499 4.89114 15.6633 5.49293 14.8231 6.424C14.6187 6.65109 14.4371 6.88953 14.2781 7.15068C14.2384 7.21881 14.1986 7.28694 14.1589 7.35507C14.1418 7.38913 14.1248 7.41752 14.1078 7.45158C14.1021 7.46861 14.0907 7.48564 14.0851 7.50268C14.0794 7.51403 14.0567 7.58216 14.0794 7.54241C14.0851 7.52538 14.0964 7.53106 14.068 7.54809C13.8523 7.64461 13.6479 7.76951 13.4549 7.90008C12.643 8.45645 11.9788 9.23424 11.6722 10.1767C11.4451 10.8693 11.4224 11.6187 11.553 12.334C11.6041 12.6236 11.6893 12.9074 11.8028 13.1743C11.8993 13.4013 12.0242 13.6511 12.257 13.759C12.3081 13.7817 12.3649 13.7987 12.416 13.7987C12.4954 13.7987 12.5636 13.7306 12.5636 13.6511C12.5636 13.3502 12.5636 13.0494 12.5636 12.7485C12.5636 12.5611 12.2797 12.5611 12.274 12.7485C12.2513 13.5319 12.4216 14.3154 12.7396 15.0307C13.0064 15.6382 13.3924 16.2513 13.9261 16.6544C14.3746 16.995 14.9139 17.2165 15.4533 17.3641C16.0267 17.5173 16.6342 17.5968 17.2246 17.5401C17.815 17.4833 18.4282 17.2959 18.8369 16.8474C18.7518 16.8134 18.6723 16.7793 18.5871 16.7452C18.5247 17.2562 18.5076 17.7899 18.5644 18.3008C18.6325 18.8912 18.854 19.4874 19.1492 19.9983C19.1435 19.9586 19.1378 19.9245 19.1321 19.8848C19.0186 20.5547 19.1265 21.2132 19.2798 21.8661C19.3592 22.1954 19.4671 22.5304 19.4955 22.8653C19.5239 23.1889 19.4557 23.5296 19.3308 23.8305C19.2514 24.0178 19.1492 24.2279 19.0243 24.3925C18.9164 24.5344 18.7574 24.7048 18.6382 24.8637C18.2692 25.3633 18.0421 26.0559 18.2295 26.6748C18.3203 26.9813 18.536 27.2368 18.8369 27.3447C19.1265 27.4525 19.4671 27.3901 19.7396 27.2482C19.9099 27.163 19.7623 26.9246 19.592 26.9984C17.9286 27.7307 16.0324 27.9067 14.2611 27.4866C12.8077 27.146 11.4622 26.4136 10.3835 25.3803C9.3105 24.3528 8.51568 23.047 8.10692 21.6163C7.89686 20.8726 7.78899 20.1062 7.78332 19.3341C7.78332 19.1581 7.78332 18.9764 7.78332 18.8004C7.78332 17.8353 7.78332 16.8701 7.78332 15.9107C7.78332 14.9739 7.78332 14.0372 7.78332 13.1004C7.78332 12.8677 7.77764 12.6349 7.78899 12.4021C7.81738 11.63 7.94796 10.8636 8.1864 10.1312C8.64058 8.72328 9.46946 7.4459 10.5708 6.45806C11.6836 5.45319 13.0632 4.76056 14.5336 4.46534C16.2651 4.11336 18.1102 4.32909 19.7169 5.07281C20.1257 5.26584 20.5231 5.48725 20.8978 5.73705C21.0624 5.83356 21.21 5.58376 21.0567 5.4759Z" fill="black"/>
<path d="M14.1711 14.2586C13.6601 14.2586 13.2627 13.9577 13.2627 13.5717C13.2627 13.4922 13.3251 13.4241 13.4103 13.4241C13.4898 13.4241 13.5579 13.4865 13.5579 13.5717C13.5579 13.7874 13.8418 13.9691 14.1767 13.9691C14.5117 13.9691 14.7956 13.7874 14.7956 13.5717C14.7956 13.4922 14.858 13.4241 14.9432 13.4241C15.0226 13.4241 15.0908 13.4865 15.0908 13.5717C15.0851 13.9577 14.682 14.2586 14.1711 14.2586Z" fill="black"/>
<path d="M7.64795 18.8686V19.3001C7.64795 24.0236 11.4801 27.8557 16.2036 27.8557C16.5045 27.8557 16.7997 27.8387 17.0949 27.8103H17.1063C17.2084 27.64 17.2709 27.4356 17.2709 27.2199V20.0098C17.2539 19.3739 16.6918 18.8459 16.1298 18.8686H7.72175H7.64795Z" fill="white"/>
<path d="M10.7876 25.9198C10.7876 25.9198 12.9109 27.8557 16.2037 27.8557C16.5046 27.8557 16.7998 27.8387 17.095 27.8103H17.1064C17.2086 27.64 17.271 27.4356 17.271 27.2199V20.0098C17.254 19.3739 16.6919 18.8459 16.1299 18.8686L10.7876 25.9198Z" fill="#E5E5E4"/>
<path d="M16.2091 27.9976C11.4118 27.9976 7.50586 24.0917 7.50586 19.2944V18.863C7.50586 18.7835 7.56831 18.7153 7.65347 18.7153H16.1353C16.4305 18.704 16.7371 18.8232 16.9812 19.0503C17.248 19.3001 17.407 19.6407 17.4183 19.9927V27.2028C17.4183 27.4413 17.3559 27.6684 17.231 27.8671C17.2083 27.9068 17.1685 27.9295 17.1231 27.9352H17.1118C16.8109 27.9863 16.51 27.9976 16.2091 27.9976ZM7.7954 19.0106V19.2944C7.7954 23.9327 11.5708 27.7024 16.2034 27.7024C16.4759 27.7024 16.7484 27.6911 17.0153 27.6627C17.0891 27.5208 17.1231 27.3675 17.1231 27.2085V19.9984C17.1174 19.7259 16.9869 19.4591 16.7768 19.2604C16.5895 19.0844 16.351 18.9879 16.1353 18.9992L7.7954 19.0106Z" fill="black"/>
<path d="M17.9185 15.1389C18.4985 15.1389 18.9687 15.0194 18.9687 14.8721C18.9687 14.7247 18.4985 14.6052 17.9185 14.6052C17.3384 14.6052 16.8682 14.7247 16.8682 14.8721C16.8682 15.0194 17.3384 15.1389 17.9185 15.1389Z" fill="#4A4A4A"/>
<path d="M13.9609 15.1389C14.541 15.1389 15.0112 15.0194 15.0112 14.8721C15.0112 14.7247 14.541 14.6052 13.9609 14.6052C13.3809 14.6052 12.9106 14.7247 12.9106 14.8721C12.9106 15.0194 13.3809 15.1389 13.9609 15.1389Z" fill="#4A4A4A"/>
</svg>
