<svg width="23" height="19" viewBox="0 0 23 19" fill="none" xmlns="http://www.w3.org/2000/svg">
<path d="M1.5 7.74953H3.75V13.7495H2.25C2.05109 13.7495 1.86032 13.8286 1.71967 13.9692C1.57902 14.1099 1.5 14.3006 1.5 14.4995C1.5 14.6984 1.57902 14.8892 1.71967 15.0299C1.86032 15.1705 2.05109 15.2495 2.25 15.2495H20.25C20.4489 15.2495 20.6397 15.1705 20.7803 15.0299C20.921 14.8892 21 14.6984 21 14.4995C21 14.3006 20.921 14.1099 20.7803 13.9692C20.6397 13.8286 20.4489 13.7495 20.25 13.7495H18.75V7.74953H21C21.1632 7.74937 21.3219 7.69599 21.452 7.59748C21.5821 7.49898 21.6765 7.36073 21.7209 7.20371C21.7653 7.04669 21.7573 6.87946 21.6981 6.7274C21.6389 6.57533 21.5317 6.44673 21.3928 6.3611L11.6428 0.361096C11.5247 0.288457 11.3887 0.25 11.25 0.25C11.1113 0.25 10.9753 0.288457 10.8572 0.361096L1.10719 6.3611C0.968276 6.44673 0.861084 6.57533 0.801872 6.7274C0.74266 6.87946 0.734659 7.04669 0.779083 7.20371C0.823508 7.36073 0.917933 7.49898 1.04803 7.59748C1.17814 7.69599 1.33681 7.74937 1.5 7.74953ZM5.25 7.74953H8.25V13.7495H5.25V7.74953ZM12.75 7.74953V13.7495H9.75V7.74953H12.75ZM17.25 13.7495H14.25V7.74953H17.25V13.7495ZM11.25 1.87985L18.3506 6.24953H4.14937L11.25 1.87985ZM22.5 17.4995C22.5 17.6984 22.421 17.8892 22.2803 18.0299C22.1397 18.1705 21.9489 18.2495 21.75 18.2495H0.75C0.551088 18.2495 0.360322 18.1705 0.21967 18.0299C0.0790176 17.8892 0 17.6984 0 17.4995C0 17.3006 0.0790176 17.1099 0.21967 16.9692C0.360322 16.8286 0.551088 16.7495 0.75 16.7495H21.75C21.9489 16.7495 22.1397 16.8286 22.2803 16.9692C22.421 17.1099 22.5 17.3006 22.5 17.4995Z" fill="#F1F4FF"/>
</svg>
